<?xml version="1.0" encoding="UTF-8"?> <svg xmlns="http://www.w3.org/2000/svg" xmlns:xlink="http://www.w3.org/1999/xlink" id="Layer_2" data-name="Layer 2" viewBox="0 0 1070.83 257.87"><defs><style> .cls-1 { fill: url(#linear-gradient-2); } .cls-2 { fill: url(#radial-gradient); } .cls-3 { fill: url(#radial-gradient-3); } .cls-4 { fill: url(#radial-gradient-2); } .cls-5 { fill: url(#radial-gradient-4); } .cls-6 { fill: #1a1a1a; } .cls-7 { fill: url(#linear-gradient); } </style><radialGradient id="radial-gradient" cx="113.08" cy="128.92" fx="113.08" fy="128.92" r="118.44" gradientTransform="translate(0 15.54) scale(1 .95)" gradientUnits="userSpaceOnUse"><stop offset="0" stop-color="#191e32"></stop><stop offset=".14" stop-color="#182233"></stop><stop offset=".3" stop-color="#172f38"></stop><stop offset=".46" stop-color="#164540"></stop><stop offset=".63" stop-color="#14644b"></stop><stop offset=".8" stop-color="#128c5a"></stop><stop offset=".98" stop-color="#0fbb6b"></stop><stop offset="1" stop-color="#0fc36e"></stop></radialGradient><radialGradient id="radial-gradient-2" cx="144.07" cy="137.13" fx="144.07" fy="137.13" r="121.6" xlink:href="#radial-gradient"></radialGradient><radialGradient id="radial-gradient-3" cx="156.72" cy="108.53" fx="156.72" fy="108.53" r="119.36" xlink:href="#radial-gradient"></radialGradient><radialGradient id="radial-gradient-4" cx="125.86" cy="100.41" fx="125.86" fy="100.41" r="121.36" xlink:href="#radial-gradient"></radialGradient><linearGradient id="linear-gradient" x1="206.55" y1="128.05" x2="63.86" y2="128.05" gradientUnits="userSpaceOnUse"><stop offset="0" stop-color="#196b5f"></stop><stop offset=".03" stop-color="#187260"></stop><stop offset=".15" stop-color="#148f65"></stop><stop offset=".28" stop-color="#12a669"></stop><stop offset=".43" stop-color="#10b66b"></stop><stop offset=".59" stop-color="#0fc06d"></stop><stop offset=".8" stop-color="#0fc36e"></stop></linearGradient><linearGradient id="linear-gradient-2" x1="63.86" y1="101.02" x2="206.55" y2="101.02" xlink:href="#linear-gradient"></linearGradient></defs><g id="Layer_1-2" data-name="Layer 1"><g><g><g><path class="cls-2" d="M226.15,92.95c-.55-1.49-1.16-2.96-1.79-4.42-.23-.54-.47-1.08-.72-1.61-.15-.33-.3-.66-.46-.99,0,0,0-.02-.01-.03-.02-.04-.03-.07-.05-.11-.17-.36-.33-.71-.51-1.07-2.45-5.09-5.33-9.97-8.55-14.6C175.33,14.41,91.25,3.73,38.89,48.4c0,0-.01.01-.02.02-.27.39-.54.77-.81,1.16.26-.39.53-.77.8-1.15C16.09,67.86,1.36,95.68,0,126.8c0,.51,0,1.02,0,1.54,0,16.08,3.7,33.01,9.33,47.2,17.48,44.12,58.91,75.18,109.6,81.01-22.36-3.47-44.12-12.42-61.08-26.89-15.23-13-28.04-30.92-33.81-49.64-5.54-17.96-7.53-38.11-3.34-56.5,2.27-9.96,6.32-20.5,11.68-29.35,6.48-10.69,15.25-22.39,24.91-30.69.02,0,.04-.05.07-.07,19.76-16.97,45.63-27.58,74.08-28.47.05,0,.09,0,.13,0,41.94-4.54,77.41,23.99,94.58,58.02Z"></path><path class="cls-4" d="M270.33,133.29c-2.33,63.83-53.19,115.89-118.45,123.59-5.5.65-11.1.98-16.78.98-28.88,0-60.36-12.87-77.96-28.25-16.51-14.44-29.58-33.47-35.05-54.31-2.94-11.2-5.05-24.65-4.01-36.22,1.37-15.21,5.91-31.22,13.91-44.5,6.5-10.8,17.02-24.79,25.99-31.88,24.2-19.36,46.84-26.95,72.24-27.72-23.05,1.96-47.24,11.35-64.26,27.56-.33.31-.66.63-.98.95-21.94,21.54-31.85,52.78-26.2,82.34.93,4.88,2.39,9.65,4.1,14.33.04.12.09.23.13.34,8.17,24.05,24.96,45.13,47.27,58.79,6.26,3.83,13.02,7.33,19.87,10.13,22.79,9.31,50.1,10.84,73.83,4.13,16.83-4.76,35.58-12.27,47.95-24.66,0,0,.01-.01.02-.02,0,0,0-.01,0-.02,0,0,0-.02.01-.02,21.96-18.88,36.36-45.59,38.38-75.54Z"></path><path class="cls-3" d="M270.41,129.16c0,1.51-.03,3-.08,4.5,0,.03,0,.05,0,.08-.76,11.28-3.32,22.7-7.66,33.21-4.23,10.23-9.91,20.02-17.19,28.57-3.42,4.02-7.06,7.92-10.9,11.57-2.91,2.76-5.5,5.38-8.88,7.64-3.8,2.54-7.74,4.89-11.7,7.19-1.22.71-2.44,1.41-3.68,2.09.86-.46,1.71-.92,2.56-1.39-16.15,8.86-35.04,14.36-53.65,15.39-5.19.29-10.53.32-15.72-.06-23.73-1.76-46.6-10.73-64.26-26.04-9.83-8.26-19.1-18.01-25.46-28.26-4.49-7.23-7.76-14.63-10.77-22.51,10.34,27.04,34.49,49.72,63.7,57.52,16.89,4.51,34.36,5.36,51.58,2.15,4.77-.89,9.49-2.1,14.09-3.59,10.72-3.48,21.09-8.25,30.22-14.68,9.92-6.99,19.28-15.36,26.55-24.9,6.83-8.97,12.6-18.98,16.25-29.54,2.07-5.99,3.49-12.25,4.52-18.48.94-5.67,1.66-11.49,1.66-17.43,0-30.52-12.75-58.37-33.6-78.69,0,0,.08,0,.09-.01-.03-.03-.05-.06-.08-.09C197.51,13.46,169.32.8,138.1.04c57.22,1.18,105.7,36.28,124.24,85.06.32.85.63,1.69.94,2.54.01.03.02.06.03.09,4.61,13,7.11,26.94,7.11,41.43Z"></path><path class="cls-5" d="M251.72,112.19c0,5.94-.61,11.75-1.54,17.43-1.96,11.84-6.19,24.43-11.85,34.08-5.99,11.95-12.68,19.39-23.39,29.2-19.17,17.56-42.51,25.83-58.59,28.24-4.71.71-11.3,1.76-18.74,1.58,40.87-1.07,75.04-24.47,88.56-58.94,3.26-8.3,6.92-19.64,6.88-34.63-.03-11.7-2.09-22.89-6.31-33.21-.01-.04-.01-.07-.03-.11.01.03.03.06.04.09-.2-.55-.4-1.11-.61-1.66,0-.03-.02-.06-.03-.09-.2-.55-.42-1.1-.63-1.64-10.36-26.25-32.51-49.64-59.43-61.14-7.74-3.3-16.3-6.26-24.61-7.9-36.54-7.25-74.81,1.89-102.75,25.72,0,0-.01,0-.02.01,0,0,0,.01-.01.02C15.88,68.68,1.35,97.21,0,128.33.85,58.89,58.89,1.93,131.37.06c.01,0,.02,0,.03,0,.22,0,.45-.01.67-.02.51-.02,1.01-.03,1.52-.03.5,0,1.01,0,1.51,0s1.01,0,1.51,0c.5,0,.99.01,1.49.03,31.23.77,59.42,13.43,79.91,33.37.03.03.06.06.09.09t0,0h-.05c20.85,20.32,33.66,48.17,33.66,78.69Z"></path></g><g><path class="cls-7" d="M189.74,139.39c-8.77,15-29.29,27.39-52.59,26.71-15.22-.44-39.14-4.95-58.51-41.03,12.87-23.01,33.19-35.34,58.8-35.34.26,0,.51,0,.77,0,21.04.24,36.23,5.93,47.36,22.4l-76.5-.66-8.76,12.93h106.26l-4.12-7.31c-12.04-24.62-36.01-39.84-64.12-40.15-.3,0-.59.04-.89.04-30.35,0-58.03,17.65-72.41,45.46l-1.16,2.26,1.04,2.31c14.56,32.25,40.45,51.26,71.04,52.14.72.02,1.43.03,2.14.03,26.64,0,52.94-14.14,63.85-35.02l2.3-4.76h-14.5Z"></path><path class="cls-1" d="M78.63,125.03c13.25-21.77,33.27-35.32,58.8-35.32.26,0,.51,0,.77,0,21.04.24,33.7,7.13,47.36,22.85l20.99,12.24h0s-2.79-10.49-12.93-22.61c-11.85-14.16-29.57-24.49-55.31-25.16-.3,0-.59,0-.89,0-30.35,0-58.03,17.62-72.41,45.44l-1.16,2.25,14.77.33Z"></path></g></g><g><path class="cls-6" d="M401.83,129.39v-2.56c0-15-3.17-30.75-13.41-42.27-2.54-2.86-5.58-5.53-8.77-7.65-8.27-5.52-18.74-9.15-28.75-8.84-18,.55-34.87,8.74-43.46,25.01-6.08,11.53-8.27,25.88-7.33,38.73.82,11.1,2.78,23.45,9.49,32.66,3.45,4.73,8.7,9.95,13.86,12.81,4.32,2.4,9.65,4.98,14.52,5.97,4.18.85,8.66,1.4,12.92,1.47,7.27,0,14.29-1.34,20.84-3.96,10.67-4.27,20.09-13.04,24.54-23.69.32-.77,2.75-8.68,3.15-8.68h-26.21c-1.69,3-4.19,6.74-7.46,9.63-3.58,3.19-8.59,4.61-14.87,4.61-12.13,0-20.13-7.88-23.7-19.02-1.32-4.11-1.85-8.44-2.33-12.72l-.16-1.51h77.12ZM350.9,91.02c20.26,0,24.94,22.37,24.94,22.37h-49.76s2.79-22.37,24.82-22.37Z"></path><path class="cls-6" d="M918.83,129.39v-2.6c0-2.58-.61-5.12-.83-7.53-.22-2.35-.72-4.69-1.02-6.92-.85-5.68-2.39-10.76-4.32-15.04-1.91-4.28-4.2-8.05-6.71-11.21-2.48-3.12-5.24-5.76-8.14-7.86-2.94-2.12-5.89-3.86-8.7-5.15-6.81-3.06-14.27-4.76-22.13-5.06-9.56.29-18.17,2.51-25.55,6.58-3.12,1.74-6.26,4.03-9.35,6.81-3.02,2.74-5.75,6.24-8.09,10.37-2.36,4.18-4.29,9.17-5.71,14.86-1.42,5.73-2.16,12.51-2.16,20.15s.73,14.42,2.16,20.16c1.43,5.69,3.35,10.65,5.7,14.74,2.34,4.06,5.07,7.47,8.1,10.13,3.06,2.7,6.21,4.97,9.34,6.71,7.38,3.92,15.99,5.99,25.57,6.14,7.26,0,14.28-1.34,20.83-3.96,2.68-1.16,5.51-2.68,8.37-4.51,2.81-1.79,5.5-4.11,7.99-6.86,2.5-2.79,4.81-5.7,6.86-9.46,1.86-3.41,3.36-8.5,4.48-11.5h-26.21c-1.69,3-4.2,6.72-7.47,9.61-3.58,3.19-8.59,4.6-14.86,4.6s-11.3-1.72-14.87-4.92c-3.48-3.08-6.1-6.76-7.78-10.82-1.05-2.59-1.82-5.32-2.28-8.04-.43-2.57-.8-5.32-1.11-7.95l-.16-1.48h78.05ZM843.69,112.58c.57-2.44,1.46-4.99,2.63-7.39,1.17-2.39,2.71-4.67,4.62-6.62,1.9-1.94,4.17-3.52,6.81-4.65,2.63-1.12,5.71-1.71,9.23-1.71s6.59.55,9.22,1.67c2.64,1.13,4.91,2.66,6.8,4.6,1.91,1.95,3.41,4.33,4.51,6.71,1.1,2.4,2.02,4.95,2.75,7.38"></path><path class="cls-6" d="M510.83,126.83v57.56h-25v-62.43c0-3.36-.23-6.82-.81-10.32-.61-3.57-1.73-6.88-3.4-9.83-1.71-3-4.12-5.53-7.2-7.5-3.12-1.99-7.24-3-12.28-3s-9.18,1.01-12.3,3c-3.08,1.97-5.51,4.51-7.21,7.5-1.67,2.94-2.55,6.25-3.18,9.83-.58,3.48-.62,6.95-.62,10.32v62.43h-25v-57.56c0-9.86,1.17-18.24,3.39-24.89,2.21-6.64,5.09-12.23,8.51-16.6,3.4-4.35,7.14-7.74,11.08-10.02,4.01-2.35,7.85-4.08,11.4-5.18,3.54-1.08,6.63-1.71,9.15-1.85,1.72-.1,4.07-.23,4.78-.23.5,0,2.9.13,4.65.23,2.59.15,5.71.77,9.27,1.85,3.54,1.1,7.37,2.83,11.38,5.16,3.96,2.31,7.69,5.7,11.09,10.04,3.4,4.36,6.49,9.94,8.72,16.6,2.22,6.66,3.59,15.04,3.59,24.89Z"></path><path class="cls-6" d="M624.83,129.39v-2.56c0-2.58-.3-5.12-.52-7.53-.22-2.35-.57-4.69-.86-6.92-.85-5.68-2.32-10.76-4.24-15.04-1.91-4.28-4.17-8.05-6.68-11.21-2.48-3.12-5.23-5.76-8.12-7.86-2.94-2.12-5.88-3.86-8.69-5.15-6.81-3.06-14.27-4.76-22.12-5.06-9.56.29-18.16,2.51-25.55,6.58-3.12,1.74-6.26,4.03-9.34,6.81-3.02,2.74-5.75,6.24-8.09,10.37-2.36,4.18-4.29,9.17-5.71,14.86-1.42,5.72-2.16,12.51-2.16,20.15s.73,14.42,2.16,20.16c1.43,5.69,3.35,10.65,5.7,14.74,2.34,4.06,5.07,7.47,8.1,10.13,3.06,2.7,6.21,4.97,9.34,6.71,7.38,3.92,16,5.99,25.57,6.14,7.26,0,14.28-1.34,20.83-3.96,2.68-1.16,5.5-2.68,8.37-4.51,2.81-1.79,5.49-4.11,7.99-6.86,2.5-2.79,4.81-5.72,6.86-9.48,1.86-3.41,3.36-8.52,4.48-11.52h-26.21c-1.69,3-4.2,6.74-7.47,9.63-3.58,3.19-8.59,4.61-14.86,4.61s-11.3-1.72-14.87-4.91c-3.48-3.08-6.1-6.76-7.78-10.82-1.05-2.59-1.82-5.32-2.28-8.04-.43-2.57-.8-5.34-1.11-7.97l-.16-1.51h77.43ZM550.31,112.63c.57-2.44,1.46-4.99,2.63-7.39,1.17-2.39,2.7-4.67,4.62-6.62,1.9-1.94,4.17-3.52,6.81-4.65,2.63-1.12,5.71-1.71,9.23-1.71s6.59.55,9.22,1.67c2.64,1.13,4.91,2.66,6.8,4.6,1.91,1.95,3.41,4.33,4.51,6.71,1.1,2.4,2.02,4.95,2.75,7.38"></path><path class="cls-6" d="M697.33,90.02c-3.79,4.36-9.49,4.76-13.44,4.76-1.28,0-2.5-.11-3.47-.16-.33-.01-.68-.05-1.05-.05-3.08,0-7.26.54-9.12,1.18-2.66.93-4.55,2.87-5.25,3.71-1.33,1.68-2.17,3.48-2.17,5.84v79.09h-24v-83.37c0-7.49,1.28-13.41,4.33-17.59,3.12-4.28,6.4-7.32,10.04-9.47,4.35-2.58,9.19-4.57,14.67-4.57h33.27c.33,3,1.01,15.08-3.8,20.63Z"></path><path class="cls-6" d="M801.38,101.86c-1.85-7.21-4.53-13.41-8.56-18.41-4.03-4.99-9.2-8.84-15.41-11.44-6.27-2.62-13.99-3.95-23.01-3.96-9.56.3-18.15,2.52-25.56,6.59-3.12,1.74-6.25,4.03-9.33,6.81-3.03,2.74-5.76,6.22-8.1,10.37-2.36,4.15-4.27,9.16-5.7,14.86-1.44,5.72-2.17,12.5-2.17,20.15s.69,14.46,2.06,20.17c1.37,5.74,3.18,10.71,5.38,14.75,2.19,4.07,4.7,7.48,7.47,10.16,2.77,2.69,5.69,4.95,8.66,6.68,6.8,3.91,14.71,5.97,23.52,6.13,4.37-.3,8.67-1.25,12.78-2.84,3.48-1.42,7.15-3.78,10.85-6.98,1.55-1.34,2.99-3.02,4.37-4.98l2.19-3.17v16.04c0,1.72-.17,4.07-.53,7.08-.39,3.2-1.89,6.36-4.44,9.46-8.29,10.05-20.96,11.36-33.44,11.36-2.36,0-4.7-.04-6.96-.1-1.41-.02-2.81-.21-4.16-.21h-.54c-6.15,0-10.89,1.48-13.7,4.02-4.82,4.36-3.97,16.16-3.38,19.14l29.95.18c9.1,0,18.42-.96,24.3-2.46,6.3-1.61,11.78-3.91,16.32-6.82,4.53-2.9,8.27-6.39,11.17-10.37,2.9-3.98,4.96-8.43,6.23-13.19.85-3.19,1.3-6.74,1.8-10.51.51-3.75.39-7.89.39-12.32v-51.23c0-9.29-.57-17.7-2.45-24.97ZM778.78,135.18c-.59,3.9-1.79,7.53-3.62,10.9-1.83,3.37-4.39,6.18-7.69,8.42-3.29,2.25-7.65,3.37-13.07,3.37s-9.78-1.12-13.07-3.37c-3.29-2.25-5.82-5.06-7.58-8.42-1.76-3.37-2.94-7-3.52-10.9-.59-3.9-.88-7.49-.88-10.79s.29-6.89.88-10.79c.58-3.89,1.76-7.52,3.52-10.9,1.76-3.37,4.28-6.18,7.58-8.43,3.29-2.25,7.65-3.37,13.07-3.37,5.71,0,10.25.98,13.62,2.92,3.37,1.94,5.89,4.53,7.57,7.75,1.68,3.22,2.78,6.81,3.3,10.78.51,3.97.77,7.98.77,12.02,0,3.3-.3,6.89-.88,10.79Z"></path><path class="cls-6" d="M955.53,44.38c0,3.36-.04,5.77-.1,7.36-.06,1.32-.38,2.24-.95,2.77-.56.54-1.66.84-3.17.9-1.73.07-4.34.11-7.97.11s-6.24-.04-7.97-.11c-1.5-.06-2.59-.38-3.17-.91-.57-.52-.88-1.45-.94-2.75-.07-1.56-.11-3.96-.11-7.36s.04-5.8.11-7.37c.06-1.29.37-2.22.93-2.74.58-.55,1.66-.85,3.18-.93,1.84-.07,4.52-.1,7.97-.1s6.13.02,7.97.1c1.51.07,2.61.39,3.18.91.56.52.88,1.45.94,2.77.06,1.58.1,4,.1,7.36Z"></path><rect class="cls-6" x="930.83" y="69.39" width="24" height="115"></rect><path class="cls-6" d="M1068.02,102.09c-1.85-7.21-4.85-13.41-8.88-18.42-4.04-4.98-9.24-8.88-15.47-11.55-6.26-2.69-14-4.06-23-4.07-9.57.3-18.17,2.52-25.58,6.59-3.11,1.74-6.25,4.03-9.32,6.81-3.03,2.74-5.76,6.22-8.11,10.37-2.35,4.15-4.26,9.16-5.69,14.86-1.44,5.72-2.17,12.51-2.17,20.15s.69,14.46,2.06,20.17c1.37,5.75,3.18,10.71,5.37,14.75,2.19,4.06,4.72,7.48,7.47,10.16,1.85,1.78,3.79,3.4,5.78,4.79,5.92,4.13,13.09,6.78,20.73,7.67,1.43.17,2.94.26,4.46.26.88,0,1.8-.02,2.67-.09,8.14-.52,16.09-3.93,22.28-9.62,3.06-2.83,5.65-7.49,5.68-7.54l2.53-4.34v21.34h22v-57.32c0-9.31-.95-17.71-2.81-24.97ZM1045.03,135.18c-.59,3.9-1.79,7.53-3.62,10.9-1.84,3.37-4.39,6.18-7.69,8.42-3.3,2.25-7.65,3.37-13.07,3.37s-9.78-1.12-13.07-3.37c-3.29-2.25-5.82-5.06-7.58-8.42-1.76-3.37-2.94-7-3.51-10.9-.6-3.9-.88-7.49-.88-10.79s.29-6.89.88-10.79c.58-3.89,1.76-7.52,3.51-10.9,1.76-3.37,4.28-6.18,7.58-8.43,3.29-2.25,7.65-3.37,13.07-3.37,5.71,0,10.25.98,13.62,2.92,3.37,1.94,5.89,4.53,7.58,7.75,1.68,3.22,2.78,6.81,3.3,10.78.51,3.97.76,7.98.76,12.02,0,3.3-.29,6.89-.88,10.79Z"></path></g></g></g></svg> 